<svg width="80" height="80" viewBox="0 0 80 80" xmlns="http://www.w3.org/2000/svg">
  <!-- Bouclier de sécurité -->
  <defs>
    <linearGradient id="shieldGradient" x1="0%" y1="0%" x2="100%" y2="100%">
      <stop offset="0%" style="stop-color:#FFFFFF;stop-opacity:1" />
      <stop offset="100%" style="stop-color:#F7F7F7;stop-opacity:1" />
    </linearGradient>
    <filter id="shadow" x="-50%" y="-50%" width="200%" height="200%">
      <feDropShadow dx="2" dy="2" stdDeviation="3" flood-color="#000000" flood-opacity="0.2"/>
    </filter>
  </defs>
  
  <!-- Bouclier principal -->
  <path d="M40 10 L60 20 L60 45 Q60 55 40 65 Q20 55 20 45 L20 20 Z" 
        fill="url(#shieldGradient)" 
        stroke="#000000" 
        stroke-width="2" 
        filter="url(#shadow)"/>
  
  <!-- Coche de validation -->
  <path d="M30 38 L36 44 L50 30" 
        stroke="#D4AF37" 
        stroke-width="4" 
        stroke-linecap="round" 
        stroke-linejoin="round" 
        fill="none"/>
  
  <!-- Détails du bouclier -->
  <path d="M40 15 L55 22 L55 42 Q55 48 40 56 Q25 48 25 42 L25 22 Z" 
        fill="none" 
        stroke="#000000" 
        stroke-width="1" 
        opacity="0.3"/>
  
  <!-- Étoiles de sécurité -->
  <circle cx="25" cy="15" r="2" fill="#D4AF37"/>
  <circle cx="55" cy="15" r="2" fill="#D4AF37"/>
  <circle cx="15" cy="30" r="1.5" fill="#D4AF37" opacity="0.8"/>
  <circle cx="65" cy="30" r="1.5" fill="#D4AF37" opacity="0.8"/>
</svg>