<svg width="80" height="80" viewBox="0 0 80 80" xmlns="http://www.w3.org/2000/svg">
  <!-- Siège de voiture confortable -->
  <defs>
    <linearGradient id="seatGradient" x1="0%" y1="0%" x2="100%" y2="100%">
      <stop offset="0%" style="stop-color:#FFFFFF;stop-opacity:1" />
      <stop offset="100%" style="stop-color:#F7F7F7;stop-opacity:1" />
    </linearGradient>
  </defs>
  
  <!-- Base du siège -->
  <rect x="15" y="45" width="50" height="25" rx="8" ry="8" fill="url(#seatGradient)" stroke="#000000" stroke-width="2"/>
  
  <!-- Dossier du siège -->
  <rect x="18" y="20" width="44" height="30" rx="6" ry="6" fill="url(#seatGradient)" stroke="#000000" stroke-width="2"/>
  
  <!-- Appui-tête -->
  <rect x="25" y="12" width="30" height="15" rx="8" ry="8" fill="url(#seatGradient)" stroke="#000000" stroke-width="2"/>
  
  <!-- Accoudoirs -->
  <rect x="8" y="35" width="12" height="20" rx="4" ry="4" fill="#FFFFFF" stroke="#000000" stroke-width="1.5"/>
  <rect x="60" y="35" width="12" height="20" rx="4" ry="4" fill="#FFFFFF" stroke="#000000" stroke-width="1.5"/>
  
  <!-- Détails de confort (coutures) -->
  <line x1="25" y1="25" x2="25" y2="40" stroke="#000000" stroke-width="1.5" opacity="0.4"/>
  <line x1="40" y1="25" x2="40" y2="40" stroke="#000000" stroke-width="1.5" opacity="0.4"/>
  <line x1="55" y1="25" x2="55" y2="40" stroke="#000000" stroke-width="1.5" opacity="0.4"/>
  
  <!-- Étoiles de confort -->
  <path d="M20 8 L22 12 L26 12 L23 15 L24 19 L20 17 L16 19 L17 15 L14 12 L18 12 Z" fill="#D4AF37"/>
  <path d="M60 8 L62 12 L66 12 L63 15 L64 19 L60 17 L56 19 L57 15 L54 12 L58 12 Z" fill="#D4AF37"/>
</svg>